<?xml version="1.0" encoding="UTF-8"?>
<svg width="107px" height="36px" viewBox="0 0 107 36" version="1.1" xmlns="http://www.w3.org/2000/svg" xmlns:xlink="http://www.w3.org/1999/xlink">
    <g id="logo" stroke="none" stroke-width="1" fill="none" fill-rule="evenodd">
        <g id="check-form" transform="translate(2.000000, 4.000000)" fill-rule="nonzero">
            <path d="M21.6414904,15.3758084 L21.6414904,2.3356005 L2.31875717,2.3356005 L2.31875717,26.6644663 L11.2071826,26.6644663 C11.8448458,26.6644663 12.3665281,27.189938 12.3665281,27.8322331 C12.3665281,28.4745283 11.8448458,29 11.2071826,29 L1.15934543,29 C0.521682233,29 0,28.4745283 0,27.8322331 L0,1.16776686 C0,0.525471707 0.521748546,0 1.15934543,0 L22.8007695,0 C23.4384327,0 23.960115,0.525471707 23.960115,1.16776686 L23.960115,15.3758084 C23.960115,16.0181036 23.4384327,16.5435753 22.8007695,16.5435753 C22.1631063,16.5435753 21.6414904,16.0181036 21.6414904,15.3758084 Z" id="Path" fill="#283040"></path>
            <path d="M27.6122222,18.2174435 C27.1291339,17.7892244 26.3949194,17.8281656 25.9697885,18.3147629 L19.6125862,25.4382543 L16.4243365,22.343602 C15.9606116,21.8959458 15.2263308,21.915383 14.7819029,22.3825432 C14.337475,22.8497033 14.356772,23.5892512 14.8205632,24.0369074 L18.8783053,27.968427 C19.0908376,28.1825031 19.3806906,28.2993265 19.6898405,28.2993265 C19.7091375,28.2993265 19.7091375,28.2993265 19.7285008,28.2993265 C20.0376508,28.2798894 20.3468007,28.1436287 20.540036,27.9100486 L27.6894765,19.8912449 C28.1339044,19.3852103 28.0952441,18.6456625 27.6122222,18.2174435 Z" id="Path" fill="#00ACFF"></path>
            <path d="M17.3904467,6.81209578 L6.95620519,6.81209578 C6.318542,6.81209578 5.79685976,7.33756749 5.79685976,7.97986263 C5.79685976,8.62215778 6.318542,9.14762949 6.95620519,9.14762949 L17.3904467,9.14762949 C18.0281099,9.14762949 18.5497921,8.62215778 18.5497921,7.97986263 C18.5497921,7.33756749 18.0281099,6.81209578 17.3904467,6.81209578 Z" id="Path" fill="#283040"></path>
            <path d="M18.5498584,14.4026805 C18.5498584,13.7603854 18.0281762,13.2349137 17.390513,13.2349137 L6.95620519,13.2349137 C6.318542,13.2349137 5.79685976,13.7603854 5.79685976,14.4026805 C5.79685976,15.0449757 6.318542,15.5704474 6.95620519,15.5704474 L17.3904467,15.5704474 C18.0281099,15.5704474 18.5498584,15.0449757 18.5498584,14.4026805 Z" id="Path" fill="#97A4BA"></path>
            <path d="M6.95620519,19.4630926 C6.318542,19.4630926 5.79685976,19.9885643 5.79685976,20.6308595 C5.79685976,21.2731546 6.318542,21.7986263 6.95620519,21.7986263 L10.0478372,21.7986263 C10.6855004,21.7986263 11.2071826,21.2731546 11.2071826,20.6308595 C11.2071826,19.9885643 10.6855004,19.4630926 10.0478372,19.4630926 L6.95620519,19.4630926 Z" id="Path" fill="#67758D"></path>
        </g>
    </g>
</svg>
