<svg id="Layer_1" data-name="Layer 1" xmlns="http://www.w3.org/2000/svg" viewBox="0 0 270 70.43"><defs><style>.cls-1{fill:#246ab4;}.cls-2{fill:#ffd44f;stroke:#ffd44f;stroke-width:0.38px;}.cls-2,.cls-4{stroke-miterlimit:10;}.cls-3{fill:#fff;}.cls-4,.cls-5,.cls-6,.cls-7{fill:none;stroke:#fff;}.cls-4,.cls-7{stroke-width:0.79px;}.cls-5{stroke-width:1.03px;}.cls-6{stroke-width:0.95px;}</style></defs><title>umpi-logo-color</title><path class="cls-1" d="M85.57,8.59h3.64v.54H88.4a1,1,0,0,0-.28,0,.16.16,0,0,0-.12.16v7.24a5.6,5.6,0,0,1-.46,2.4,4.25,4.25,0,0,1-1.2,1.55,4.63,4.63,0,0,1-1.66.84,7,7,0,0,1-1.85.25,6.9,6.9,0,0,1-1.48-.18,4.36,4.36,0,0,1-1.5-.65,3.82,3.82,0,0,1-1.16-1.34,4.54,4.54,0,0,1-.47-2.18V11.8c0-.57,0-1,0-1.37a5.48,5.48,0,0,0-.08-.8.73.73,0,0,0-.17-.39.4.4,0,0,0-.29-.1H76.49V8.59h4.27v.54H80l-.32,0c-.1,0-.14.07-.14.18V17a4.48,4.48,0,0,0,.4,2.05,3.24,3.24,0,0,0,1,1.18,3.11,3.11,0,0,0,1.2.54,5.82,5.82,0,0,0,1.09.13,7.25,7.25,0,0,0,1.21-.13,3.57,3.57,0,0,0,1.37-.58,3.65,3.65,0,0,0,1.13-1.32,5.06,5.06,0,0,0,.47-2.37V12c0-.72,0-1.27,0-1.66a4.42,4.42,0,0,0-.12-.87c-.05-.19-.12-.29-.21-.33a.74.74,0,0,0-.29,0H85.57Z"/><path class="cls-1" d="M92.95,17.74q0,1.13,0,1.74a3.86,3.86,0,0,0,.12.89c.06.19.14.29.25.33a1.45,1.45,0,0,0,.44.05h.79v.48h-3.9v-.48h.74l.26,0c.08,0,.12-.07.12-.18V15a9.8,9.8,0,0,0,0-1,2,2,0,0,0-.11-.53.3.3,0,0,0-.18-.19.81.81,0,0,0-.23,0H90.19v-.48a4,4,0,0,0,.63-.06l.77-.1.8-.11a4.37,4.37,0,0,1,.57,0V14a12.33,12.33,0,0,1,1.59-1.11,3.47,3.47,0,0,1,1.79-.48,2.73,2.73,0,0,1,1.17.22,2.09,2.09,0,0,1,.74.57,2,2,0,0,1,.39.78,3.54,3.54,0,0,1,.11.9v2.84c0,.75,0,1.33,0,1.74a3.83,3.83,0,0,0,.12.89c.06.19.14.29.25.33a1.47,1.47,0,0,0,.44.05h.8v.48h-3.9v-.48h.73l.26,0c.08,0,.12-.07.12-.18V15.36a2.1,2.1,0,0,0-.48-1.6,1.71,1.71,0,0,0-1.18-.43,3.4,3.4,0,0,0-1.61.38,7.58,7.58,0,0,0-1.37.93Z"/><path class="cls-1" d="M103.74,17.74c0,.75,0,1.33,0,1.74a3.79,3.79,0,0,0,.12.89c.06.19.14.29.25.33a1.47,1.47,0,0,0,.44.05h.8v.48h-3.9v-.48h.74l.26,0c.08,0,.12-.07.12-.18V15a9.67,9.67,0,0,0,0-1,2,2,0,0,0-.11-.53.3.3,0,0,0-.18-.19.82.82,0,0,0-.23,0H101v-.48a4,4,0,0,0,.63-.06l.76-.1.81-.11a4.32,4.32,0,0,1,.56,0Zm-1.43-8.21a.74.74,0,0,1,1.47,0,.73.73,0,0,1-.22.53.72.72,0,0,1-1,0A.73.73,0,0,1,102.31,9.53Z"/><path class="cls-1" d="M105.81,12.75h3.62v.48h-1.2a.1.1,0,0,0-.09.11,9.88,9.88,0,0,0,.62,1.65q.63,1.47,1.94,4.65,1.14-2.37,1.69-3.93a7.84,7.84,0,0,0,.55-2.18c0-.16-.05-.25-.16-.28a1.55,1.55,0,0,0-.34,0h-.92v-.48h3.38v.48h-.66a.46.46,0,0,0-.21,0,.63.63,0,0,0-.17.26c-.17.37-.4.87-.68,1.51s-.57,1.32-.89,2.06l-.94,2.24c-.32.75-.6,1.44-.86,2.06-.06.13-.14.2-.22.2a.14.14,0,0,1-.11,0,1.91,1.91,0,0,1-.19-.37,4.47,4.47,0,0,0-.22-.64c-.12-.32-.26-.68-.43-1.11l-.54-1.36c-.19-.48-.39-1-.58-1.42l-.53-1.29c-.17-.39-.3-.7-.41-.92a8.21,8.21,0,0,0-.5-.94.54.54,0,0,0-.46-.27h-.53Z"/><path class="cls-1" d="M122.87,20a4.8,4.8,0,0,1-3.64,1.59,3.3,3.3,0,0,1-2.75-1.31,4,4,0,0,1-.68-1.37,5.91,5.91,0,0,1-.22-1.61,6.58,6.58,0,0,1,.23-1.7,4.89,4.89,0,0,1,.7-1.55,3.9,3.9,0,0,1,1.17-1.13,3.09,3.09,0,0,1,1.66-.44,2.68,2.68,0,0,1,1.13.23,3.27,3.27,0,0,1,.9.62,4.81,4.81,0,0,1,.72.88c.2.32.39.66.57,1l-1.45.45-1.39.41-1.45.4-1.63.4a6.78,6.78,0,0,0,.23,1.47,3.69,3.69,0,0,0,.58,1.23,2.71,2.71,0,0,0,1,.85,3.29,3.29,0,0,0,1.5.31,3.58,3.58,0,0,0,2.54-1Zm-1.65-4.85a3.76,3.76,0,0,0-.33-.73,4,4,0,0,0-.48-.68,2.51,2.51,0,0,0-.63-.52A1.54,1.54,0,0,0,119,13a1.56,1.56,0,0,0-1,.31,2.63,2.63,0,0,0-.71.79,4.34,4.34,0,0,0-.45,1.07,4.26,4.26,0,0,0-.16,1.14Z"/><path class="cls-1" d="M125.56,15a9.72,9.72,0,0,0,0-1,2,2,0,0,0-.11-.53.3.3,0,0,0-.18-.19.83.83,0,0,0-.23,0h-1.05v-.48a4,4,0,0,0,.63-.06l.77-.1.8-.11a4.44,4.44,0,0,1,.57,0v1.71q.56-.52,1-.85a7.57,7.57,0,0,1,.69-.52,2.57,2.57,0,0,1,.53-.27,1.34,1.34,0,0,1,.47-.08,1.3,1.3,0,0,1,.52.11,1,1,0,0,1,.42.33c-.05.32-.1.57-.14.75s-.07.31-.1.4a.34.34,0,0,1-.08.16.15.15,0,0,1-.1,0,.16.16,0,0,1-.16-.09,1.18,1.18,0,0,0-.13-.21.75.75,0,0,0-.28-.21,1.49,1.49,0,0,0-.59-.09,1.85,1.85,0,0,0-.92.25,5,5,0,0,0-1.09.92v3c0,.75,0,1.33,0,1.74a3.87,3.87,0,0,0,.12.89c.06.19.14.29.25.33a1.46,1.46,0,0,0,.44.05h.79v.48h-3.89v-.48h.73l.26,0c.08,0,.12-.07.12-.18Z"/><path class="cls-1" d="M134.13,13.09a2.49,2.49,0,0,0-.67.1,2.59,2.59,0,0,0-.65.29,1.57,1.57,0,0,0-.49.47,1.23,1.23,0,0,0-.19.69,1,1,0,0,0,.38.83,3.32,3.32,0,0,0,.94.48q.57.2,1.22.37a6.09,6.09,0,0,1,1.22.45,2.74,2.74,0,0,1,.94.74,1.91,1.91,0,0,1,.38,1.24,2.31,2.31,0,0,1-.35,1.28,2.77,2.77,0,0,1-.9.86,4.49,4.49,0,0,1-1.22.49,5.78,5.78,0,0,1-1.3.16,6.55,6.55,0,0,1-2.23-.38L131,20.1a5.21,5.21,0,0,1-.08-.65c0-.12.07-.18.22-.18a.15.15,0,0,1,.16.12c0,.09.05.15.08.22a1,1,0,0,0,.32.51,2.47,2.47,0,0,0,.64.4,4.21,4.21,0,0,0,.8.27,3.42,3.42,0,0,0,.81.1,2.89,2.89,0,0,0,.78-.11,2.24,2.24,0,0,0,.73-.34,1.82,1.82,0,0,0,.54-.58,1.51,1.51,0,0,0,.21-.8,1.09,1.09,0,0,0-.37-.89,2.9,2.9,0,0,0-.92-.5c-.37-.13-.77-.24-1.2-.34a5.92,5.92,0,0,1-1.2-.4,2.68,2.68,0,0,1-.93-.7,1.82,1.82,0,0,1-.37-1.21,2.13,2.13,0,0,1,.24-1,2.75,2.75,0,0,1,.66-.83,3.21,3.21,0,0,1,1-.57,3.65,3.65,0,0,1,1.24-.21,6.7,6.7,0,0,1,1.18.1,4.16,4.16,0,0,1,1,.32c0,.26.05.54.08.82s0,.46,0,.53a.12.12,0,0,1-.14.14.17.17,0,0,1-.14-.05.46.46,0,0,1-.08-.13l-.15-.24a1.3,1.3,0,0,0-.36-.36,2.73,2.73,0,0,0-.67-.33A3.32,3.32,0,0,0,134.13,13.09Z"/><path class="cls-1" d="M140.93,17.74c0,.75,0,1.33,0,1.74a3.8,3.8,0,0,0,.12.89c.06.19.14.29.25.33a1.47,1.47,0,0,0,.44.05h.8v.48h-3.9v-.48h.74l.26,0c.08,0,.12-.07.12-.18V15c0-.44,0-.78,0-1a1.86,1.86,0,0,0-.11-.53.29.29,0,0,0-.18-.19.82.82,0,0,0-.23,0h-1.05v-.48a4,4,0,0,0,.63-.06l.77-.1.81-.11a4.37,4.37,0,0,1,.57,0Zm-1.43-8.21A.73.73,0,0,1,140.75,9a.7.7,0,0,1,.22.52.73.73,0,0,1-1.25.53A.74.74,0,0,1,139.49,9.53Z"/><path class="cls-1" d="M145.64,12.75h2.17a.78.78,0,0,1-.12.41.27.27,0,0,1-.18.07h-1.87v5.68a5,5,0,0,0,0,.67,1.63,1.63,0,0,0,.18.6,1,1,0,0,0,.42.43,1.54,1.54,0,0,0,.75.16,2.89,2.89,0,0,0,.69-.09,4.57,4.57,0,0,0,.67-.23l.18.4a5.19,5.19,0,0,1-1.14.49,4.22,4.22,0,0,1-1.2.21,1.62,1.62,0,0,1-1.29-.51,2,2,0,0,1-.44-1.32V13.23H144a2.48,2.48,0,0,1-.41,0,.1.1,0,0,1-.09-.12.54.54,0,0,1,.2-.32l1.61-1.91h.28Z"/><path class="cls-1" d="M148.86,12.75h3.62v.48h-1.21a.1.1,0,0,0-.09.11,6.44,6.44,0,0,0,.29.82l.72,1.74c.28.66.57,1.34.87,2l.75,1.73q.79-1.69,1.24-2.82c.3-.75.52-1.35.67-1.81a7,7,0,0,0,.29-1,2.8,2.8,0,0,0,.06-.48c0-.16,0-.25-.13-.28a1.35,1.35,0,0,0-.35,0h-.9v-.48H158v.48h-.86a.2.2,0,0,0-.11.07.68.68,0,0,0-.1.2c0,.09-.08.22-.15.38L156.36,15q-.37.9-.89,2.14t-1.14,2.65q-.61,1.41-1.17,2.68t-1,2.22a8,8,0,0,1-.68,1.22,7,7,0,0,1-1,.2,8.31,8.31,0,0,1-1,.06.21.21,0,0,1-.23-.24c0-.06.11-.15.31-.24l.58-.28a3.13,3.13,0,0,0,.8-.62,7.88,7.88,0,0,0,1-1.34A19.25,19.25,0,0,0,153.18,21l-2.83-6.58a5.67,5.67,0,0,0-.48-1,.57.57,0,0,0-.47-.26h-.54Z"/><path class="cls-1" d="M164.49,17.27A5,5,0,0,1,165,15a4.9,4.9,0,0,1,1.14-1.49,4.05,4.05,0,0,1,1.42-.82,4.46,4.46,0,0,1,1.36-.25,3.9,3.9,0,0,1,1.62.33,3.66,3.66,0,0,1,1.23.91,4,4,0,0,1,.77,1.35,5.12,5.12,0,0,1,.27,1.69,4.94,4.94,0,0,1-.47,2.26,4.87,4.87,0,0,1-1.13,1.5,4.17,4.17,0,0,1-1.42.82,4.45,4.45,0,0,1-1.36.25,3.87,3.87,0,0,1-1.62-.33,3.68,3.68,0,0,1-1.23-.91,4,4,0,0,1-.77-1.35A5.11,5.11,0,0,1,164.49,17.27Zm1.25-.38a6.32,6.32,0,0,0,.17,1.44,4.14,4.14,0,0,0,.54,1.3,3,3,0,0,0,1,.95,2.58,2.58,0,0,0,1.4.37,2.39,2.39,0,0,0,1.34-.35,2.48,2.48,0,0,0,.83-.9,4.17,4.17,0,0,0,.42-1.24,8.28,8.28,0,0,0,.12-1.36,6.15,6.15,0,0,0-.17-1.44,4.16,4.16,0,0,0-.53-1.3,3,3,0,0,0-1-.95,2.57,2.57,0,0,0-1.4-.37,2.38,2.38,0,0,0-1.34.35,2.48,2.48,0,0,0-.83.91,4,4,0,0,0-.41,1.24A7.69,7.69,0,0,0,165.74,16.89Z"/><path class="cls-1" d="M176.78,17.74q0,1.13,0,1.74a3.69,3.69,0,0,0,.12.89c.06.19.14.29.25.33a1.5,1.5,0,0,0,.44.05h.79v.48h-3.9v-.48h.74l.26,0c.08,0,.12-.07.12-.18V13.23h-1.19v-.48h1.19V10.24a3.86,3.86,0,0,1,.32-1.72,2.74,2.74,0,0,1,.75-1,2.11,2.11,0,0,1,.88-.41,3.75,3.75,0,0,1,.74-.09,3.35,3.35,0,0,1,.51.06,2.89,2.89,0,0,1,.61.19,1.85,1.85,0,0,1,.51.31.58.58,0,0,1,.21.45.31.31,0,0,1-.16.28.57.57,0,0,1-.32.1,1.08,1.08,0,0,1-.72-.26,3.83,3.83,0,0,1-.55-.56l-.17,0H178a1.15,1.15,0,0,0-.89.43,2.46,2.46,0,0,0-.38,1.57v3.14h1.61v.48h-1.61Z"/><path class="cls-1" d="M187.13,10.61a2.78,2.78,0,0,0-.18-1,.69.69,0,0,0-.7-.46h-.89V8.59h2.86L193,19.06l4.3-10.46h2.59v.54h-.79l-.32,0c-.09,0-.14.07-.14.18v8.45c0,.71,0,1.27,0,1.66a4.23,4.23,0,0,0,.12.86c.05.19.12.3.21.33a.78.78,0,0,0,.29.05h1.12v.54h-4.27v-.54h.81a.89.89,0,0,0,.28,0,.16.16,0,0,0,.12-.16V10.33l0,0-4.54,10.79c0,.08-.06.12-.1.12s-.09-.06-.14-.18l-4.71-10.48h0v7.24c0,.71,0,1.27,0,1.66a4.21,4.21,0,0,0,.12.86c.05.19.12.3.21.33a.77.77,0,0,0,.29.05h1.12v.54h-3.64v-.54h.82a.87.87,0,0,0,.28,0,.16.16,0,0,0,.12-.16Z"/><path class="cls-1" d="M206.55,14.56c0-.1,0-.24,0-.41a1,1,0,0,0-.16-.47,1.15,1.15,0,0,0-.44-.38,1.79,1.79,0,0,0-.83-.16,3.91,3.91,0,0,0-1,.15,2.37,2.37,0,0,0-.91.47,3.36,3.36,0,0,1-.06.63,2.48,2.48,0,0,1-.18.56,1.2,1.2,0,0,1-.3.4.65.65,0,0,1-.42.15.38.38,0,0,1-.3-.13.41.41,0,0,1-.12-.29,1.68,1.68,0,0,1,.39-1.08,3.58,3.58,0,0,1,1-.84,4.94,4.94,0,0,1,1.24-.54,4.47,4.47,0,0,1,1.22-.19,3,3,0,0,1,1.2.2,1.29,1.29,0,0,1,.62.55,2.09,2.09,0,0,1,.23.82c0,.31,0,.65,0,1v3.16c0,.32,0,.61,0,.87a2.2,2.2,0,0,0,.15.71,1.25,1.25,0,0,0,.42.54,2.14,2.14,0,0,0,.8.34l-.63.89a1.37,1.37,0,0,1-.59-.15,2.28,2.28,0,0,1-.57-.4,2.31,2.31,0,0,1-.46-.6,1.94,1.94,0,0,1-.23-.75,6.8,6.8,0,0,1-.64.64,7.21,7.21,0,0,1-.83.62,5.59,5.59,0,0,1-.9.46,2.46,2.46,0,0,1-.87.18,1.63,1.63,0,0,1-1.29-.51,2,2,0,0,1-.45-1.34A2,2,0,0,1,202,18.5a3.66,3.66,0,0,1,1-.94,11,11,0,0,1,1.55-.82c.59-.27,1.25-.54,2-.83Zm0,1.87c-.45.16-.89.33-1.33.5a6.72,6.72,0,0,0-1.17.62,3.42,3.42,0,0,0-.85.78,1.68,1.68,0,0,0-.33,1,1.31,1.31,0,0,0,.28.88,1.05,1.05,0,0,0,.86.33,2.41,2.41,0,0,0,1.45-.5A4.52,4.52,0,0,0,206.55,19Z"/><path class="cls-1" d="M212.59,17.74q0,1.13,0,1.74a3.75,3.75,0,0,0,.12.89c.06.19.14.29.25.33a1.46,1.46,0,0,0,.44.05h.79v.48h-3.9v-.48h.74l.26,0c.08,0,.12-.07.12-.18V15a9.32,9.32,0,0,0,0-1,2.06,2.06,0,0,0-.11-.53.3.3,0,0,0-.18-.19.84.84,0,0,0-.23,0h-1.05v-.48a4.06,4.06,0,0,0,.63-.06l.77-.1.81-.11a4.34,4.34,0,0,1,.56,0Zm-1.43-8.21a.75.75,0,0,1,.74-.74.75.75,0,0,1,.73.74.72.72,0,0,1-.22.53.7.7,0,0,1-.51.22.71.71,0,0,1-.52-.22A.72.72,0,0,1,211.16,9.53Z"/><path class="cls-1" d="M217.62,17.74c0,.75,0,1.33,0,1.74a3.59,3.59,0,0,0,.12.89c.06.19.14.29.25.33a1.46,1.46,0,0,0,.44.05h.8v.48h-3.9v-.48h.73l.26,0c.08,0,.12-.07.12-.18V15c0-.44,0-.78,0-1a2.11,2.11,0,0,0-.11-.53.3.3,0,0,0-.18-.19.82.82,0,0,0-.23,0h-1.05v-.48a4,4,0,0,0,.63-.06l.76-.1.81-.11a4.37,4.37,0,0,1,.56,0V14a12.65,12.65,0,0,1,1.59-1.11,3.48,3.48,0,0,1,1.79-.48,2.72,2.72,0,0,1,1.17.22,2.07,2.07,0,0,1,.73.57,2,2,0,0,1,.39.78,3.66,3.66,0,0,1,.11.9v2.84c0,.75,0,1.33,0,1.74a3.63,3.63,0,0,0,.13.89c.05.19.14.29.25.33a1.45,1.45,0,0,0,.44.05H225v.48h-3.9v-.48h.74l.26,0c.08,0,.12-.07.12-.18V15.36a2.1,2.1,0,0,0-.48-1.6,1.7,1.7,0,0,0-1.17-.43,3.41,3.41,0,0,0-1.61.38,7.59,7.59,0,0,0-1.37.93Z"/><path class="cls-1" d="M233.19,20a4.81,4.81,0,0,1-3.64,1.59,3.31,3.31,0,0,1-2.74-1.31,4.06,4.06,0,0,1-.67-1.37,5.8,5.8,0,0,1-.22-1.61,6.63,6.63,0,0,1,.23-1.7,4.8,4.8,0,0,1,.7-1.55A3.83,3.83,0,0,1,228,12.87a3.08,3.08,0,0,1,1.66-.44,2.69,2.69,0,0,1,1.13.23,3.27,3.27,0,0,1,.9.62,4.73,4.73,0,0,1,.72.88c.2.32.39.66.57,1l-1.45.45-1.39.41-1.45.4-1.63.4a7.05,7.05,0,0,0,.23,1.47,3.65,3.65,0,0,0,.58,1.23,2.64,2.64,0,0,0,1,.85,3.28,3.28,0,0,0,1.5.31,3.58,3.58,0,0,0,2.54-1Zm-1.65-4.85a4,4,0,0,0-.81-1.41,2.44,2.44,0,0,0-.63-.52,1.52,1.52,0,0,0-.77-.2,1.56,1.56,0,0,0-1,.31,2.65,2.65,0,0,0-.71.79,4.22,4.22,0,0,0-.45,1.07,4.3,4.3,0,0,0-.16,1.14Z"/><path class="cls-1" d="M245,14.56c0-.1,0-.24,0-.41a1,1,0,0,0-.16-.47,1.13,1.13,0,0,0-.44-.38,1.81,1.81,0,0,0-.83-.16,3.87,3.87,0,0,0-1,.15,2.4,2.4,0,0,0-.92.47,3.72,3.72,0,0,1-.05.63,2.49,2.49,0,0,1-.18.56,1.19,1.19,0,0,1-.3.4.66.66,0,0,1-.42.15.39.39,0,0,1-.3-.13.41.41,0,0,1-.11-.29A1.69,1.69,0,0,1,240.6,14a3.54,3.54,0,0,1,1-.84,5,5,0,0,1,1.25-.54,4.45,4.45,0,0,1,1.22-.19,3,3,0,0,1,1.21.2,1.3,1.3,0,0,1,.61.55,2.09,2.09,0,0,1,.23.82c0,.31,0,.65,0,1v3.16c0,.32,0,.61,0,.87a2.11,2.11,0,0,0,.15.71,1.24,1.24,0,0,0,.42.54,2.15,2.15,0,0,0,.8.34l-.64.89a1.37,1.37,0,0,1-.59-.15,2.35,2.35,0,0,1-.57-.4,2.23,2.23,0,0,1-.46-.6,1.94,1.94,0,0,1-.23-.75,6.57,6.57,0,0,1-.64.64,7.05,7.05,0,0,1-.83.62,5.58,5.58,0,0,1-.89.46,2.48,2.48,0,0,1-.88.18A1.61,1.61,0,0,1,240.5,21a1.94,1.94,0,0,1-.45-1.34,2,2,0,0,1,.37-1.19,3.75,3.75,0,0,1,1-.94,11.34,11.34,0,0,1,1.55-.82c.6-.27,1.25-.54,2-.83Zm0,1.87c-.45.16-.89.33-1.33.5a7,7,0,0,0-1.17.62,3.48,3.48,0,0,0-.84.78,1.67,1.67,0,0,0-.33,1,1.32,1.32,0,0,0,.28.88,1.07,1.07,0,0,0,.86.33,2.4,2.4,0,0,0,1.45-.5A4.39,4.39,0,0,0,245,19Z"/><path class="cls-1" d="M250.57,12.75h2.17a.81.81,0,0,1-.12.41.28.28,0,0,1-.18.07h-1.87v5.68a6.25,6.25,0,0,0,0,.67,1.84,1.84,0,0,0,.18.6,1.08,1.08,0,0,0,.42.43,1.55,1.55,0,0,0,.76.16,2.92,2.92,0,0,0,.69-.09,4.37,4.37,0,0,0,.66-.23l.18.4a5,5,0,0,1-1.14.49,4.21,4.21,0,0,1-1.2.21,1.61,1.61,0,0,1-1.29-.51,1.94,1.94,0,0,1-.44-1.32V13.23H249a2.46,2.46,0,0,1-.41,0,.1.1,0,0,1-.09-.12.54.54,0,0,1,.2-.32l1.61-1.91h.28Z"/><path class="cls-1" d="M83.41,40.16q0,1.48,0,2.32a5.9,5.9,0,0,0,.16,1.24c.08.27.2.44.35.49a1.85,1.85,0,0,0,.59.08h1.37v1H78.06v-1h1.37c.2,0,.33,0,.38-.12a.71.71,0,0,0,.08-.36V31.15c0-1,0-1.79,0-2.34a5.87,5.87,0,0,0-.17-1.23c-.08-.28-.2-.44-.35-.48a1.84,1.84,0,0,0-.59-.08H77.37V26h8.74a9.08,9.08,0,0,1,3.37.53,5.54,5.54,0,0,1,2,1.32,4.34,4.34,0,0,1,1,1.7,5.84,5.84,0,0,1,.27,1.7,4.33,4.33,0,0,1-.55,2.15,5.35,5.35,0,0,1-1.47,1.67,7.1,7.1,0,0,1-2.14,1.09,8.12,8.12,0,0,1-2.55.4,8.9,8.9,0,0,1-2.67-.4Zm0-5a3.5,3.5,0,0,0,.85.24,5.49,5.49,0,0,0,1,.09,4.15,4.15,0,0,0,2.87-1,3.57,3.57,0,0,0,1.14-2.81,5.42,5.42,0,0,0-.21-1.41,4.08,4.08,0,0,0-2.17-2.59,5,5,0,0,0-2.26-.46H83.8a.35.35,0,0,0-.39.4Z"/><path class="cls-1" d="M94.51,45.29v-.85h1.16c.17,0,.28,0,.32-.1a.64.64,0,0,0,.06-.31V33.27c0-.86,0-1.52,0-2a4.8,4.8,0,0,0-.14-1c-.07-.23-.17-.37-.29-.41a1.55,1.55,0,0,0-.5-.07H93.92v-.85h7.56a6.51,6.51,0,0,1,2.39.4,5.31,5.31,0,0,1,1.69,1,4.31,4.31,0,0,1,1,1.42,4.06,4.06,0,0,1,.33,1.59,3.65,3.65,0,0,1-1,2.72,4.57,4.57,0,0,1-2.66,1.25q.88,1.32,1.49,2.28c.41.65.78,1.21,1.11,1.68s.62.88.88,1.22.53.67.8,1,.32.35.45.46a2.33,2.33,0,0,0,.39.29,1.21,1.21,0,0,0,.43.16,4.15,4.15,0,0,0,.62,0v.85h-2.94c-.29,0-.55,0-.76,0a1,1,0,0,1-.53-.18,5.16,5.16,0,0,1-.76-.89c-.32-.43-.68-1-1.07-1.62s-.82-1.37-1.28-2.18-.92-1.66-1.38-2.55h-1.6v3.1c0,.84,0,1.5,0,2A5.06,5.06,0,0,0,99.23,44c.07.23.17.37.3.41a1.61,1.61,0,0,0,.5.06h1.16v.85ZM99.05,37H100a6,6,0,0,0,1.48-.18,3.6,3.6,0,0,0,1.25-.57,2.89,2.89,0,0,0,.87-1,3.16,3.16,0,0,0,.32-1.48,3.87,3.87,0,0,0-.41-1.88,3.74,3.74,0,0,0-1-1.19,3.54,3.54,0,0,0-1.12-.61,3.28,3.28,0,0,0-.86-.17H99.39a.3.3,0,0,0-.34.33Z"/><path class="cls-1" d="M110.58,44.44h1.16c.17,0,.28,0,.32-.1a.62.62,0,0,0,.06-.31V33.27q0-1.29,0-2a4.87,4.87,0,0,0-.14-1c-.07-.23-.17-.37-.3-.41a1.56,1.56,0,0,0-.5-.07H110v-.85h12.64c-.07.62-.12,1.1-.17,1.45s-.09.6-.13.79a1.12,1.12,0,0,1-.11.34.18.18,0,0,1-.16.06c-.17,0-.28,0-.32-.14a1.47,1.47,0,0,1-.09-.43c0-.22-.37-.46-1.07-.7a10.88,10.88,0,0,0-3.26-.36h-1.86a.3.3,0,0,0-.34.33V35.9h2.4a14.47,14.47,0,0,0,1.6-.07,2.75,2.75,0,0,0,.84-.19.58.58,0,0,0,.33-.32,1.48,1.48,0,0,0,.07-.48v-.9h.77v4.54h-.77v-.93a.67.67,0,0,0-.07-.3A.51.51,0,0,0,120,37a3.81,3.81,0,0,0-.84-.14q-.57-.05-1.6-.05h-2.4v1.88q0,2.06,0,3.19a11.06,11.06,0,0,0,.13,1.65c.07.35.17.57.3.63a1.13,1.13,0,0,0,.53.1H117l1.37,0a14.27,14.27,0,0,0,1.71-.16,7.25,7.25,0,0,0,1.59-.41,1.94,1.94,0,0,0,1-.83l.14-.23a.26.26,0,0,1,.25-.1c.19,0,.28.1.28.31a1.43,1.43,0,0,1,0,.22,4,4,0,0,1-.1.41l-.21.7-.33,1.12H110.58Z"/><path class="cls-1" d="M134.26,41.47a2.32,2.32,0,0,0-.62-1.72,5.35,5.35,0,0,0-1.56-1.06,19.8,19.8,0,0,0-2-.8,10.74,10.74,0,0,1-2-.91,4.91,4.91,0,0,1-1.56-1.45,4,4,0,0,1-.62-2.36,3.85,3.85,0,0,1,.55-2.08,4.92,4.92,0,0,1,1.43-1.48,6.54,6.54,0,0,1,2-.89,8.32,8.32,0,0,1,2.18-.3,12.29,12.29,0,0,1,1.61.1,7,7,0,0,1,1.56.39c0,.34,0,.73.08,1.16s.05.75.05,1,0,.25-.12.3a.51.51,0,0,1-.24.06c-.14,0-.23,0-.26-.13a3.21,3.21,0,0,1-.1-.31,1.17,1.17,0,0,0-.43-.7,2.8,2.8,0,0,0-.79-.45,5,5,0,0,0-.9-.25,5.43,5.43,0,0,0-.83-.08,4.74,4.74,0,0,0-1.24.17,3.32,3.32,0,0,0-1.1.51,2.9,2.9,0,0,0-.79.87,2.31,2.31,0,0,0-.31,1.21,2.1,2.1,0,0,0,.62,1.6,5.24,5.24,0,0,0,1.56,1q.94.41,2,.78a9.17,9.17,0,0,1,2,1A5.09,5.09,0,0,1,136,38.11a4.53,4.53,0,0,1,.62,2.52,6.15,6.15,0,0,1-.21,1.16,4.75,4.75,0,0,1-.89,1.74,5.93,5.93,0,0,1-2,1.58,7.45,7.45,0,0,1-3.46.68,12.23,12.23,0,0,1-4.23-.75c-.14-.74-.24-1.29-.32-1.65a4.21,4.21,0,0,1-.11-.77.84.84,0,0,1,.05-.28c0-.11.14-.16.33-.16a.31.31,0,0,1,.31.16,2,2,0,0,1,.13.36,1.93,1.93,0,0,0,.64.91,4.55,4.55,0,0,0,1,.63,5.26,5.26,0,0,0,1.2.38,5.93,5.93,0,0,0,1.11.12,5.46,5.46,0,0,0,1.47-.19,3.86,3.86,0,0,0,1.29-.6,3.26,3.26,0,0,0,.92-1A2.83,2.83,0,0,0,134.26,41.47Z"/><path class="cls-1" d="M157.16,48.8c-.29.14-.62.29-1,.44s-.75.29-1.14.43a12,12,0,0,1-1.18.32,5.1,5.1,0,0,1-1.07.13,3.1,3.1,0,0,1-1.54-.45,9.44,9.44,0,0,1-1.53-1.11,19.39,19.39,0,0,1-1.45-1.41c-.46-.5-.87-1-1.24-1.36h0a9.32,9.32,0,0,1-3.36-.64,7.62,7.62,0,0,1-2.57-1.68,7.1,7.1,0,0,1-1.64-2.58,9.54,9.54,0,0,1-.57-3.37,10.07,10.07,0,0,1,.63-3.6A8.56,8.56,0,0,1,141.3,31a8.37,8.37,0,0,1,2.78-1.92,9.08,9.08,0,0,1,3.61-.7,9.72,9.72,0,0,1,3.42.58,7.38,7.38,0,0,1,2.62,1.66,7.59,7.59,0,0,1,1.67,2.61,9.28,9.28,0,0,1,.6,3.4A9.47,9.47,0,0,1,154.5,42a8.56,8.56,0,0,1-4.24,3.31c.34.34.72.71,1.13,1.08a15.34,15.34,0,0,0,1.28,1.06,7.25,7.25,0,0,0,1.34.8,3.15,3.15,0,0,0,1.33.31,2.17,2.17,0,0,0,.79-.13c.23-.09.48-.19.74-.31Zm-7.63-4.18a4.75,4.75,0,0,0,1.73-1.11,5.37,5.37,0,0,0,1.06-1.57,7.57,7.57,0,0,0,.54-1.87,13,13,0,0,0,.16-2,12.15,12.15,0,0,0-.62-4.18,8.27,8.27,0,0,0-1.52-2.68A5.37,5.37,0,0,0,147,29.35l-.66,0a4.08,4.08,0,0,0-1,.24,5.07,5.07,0,0,0-1.17.63,4.25,4.25,0,0,0-1.1,1.17,6.77,6.77,0,0,0-.81,1.89,10.52,10.52,0,0,0-.32,2.8,14.86,14.86,0,0,0,.27,2.77,9.91,9.91,0,0,0,.89,2.62,6.81,6.81,0,0,0,1.65,2.09,5.38,5.38,0,0,0,2.56,1.16,3.74,3.74,0,0,0,1.73-.7Z"/><path class="cls-1" d="M164.29,29.76h-1.16c-.17,0-.28,0-.32.1a.58.58,0,0,0-.07.31v8.67c0,.51,0,1.11.09,1.77a5.45,5.45,0,0,0,.51,1.88,3.84,3.84,0,0,0,1.3,1.5,4.27,4.27,0,0,0,2.46.6,9.84,9.84,0,0,0,1.26-.12,4,4,0,0,0,1.65-.66,4.5,4.5,0,0,0,1.44-1.64,6.32,6.32,0,0,0,.61-3v-4c0-.72,0-1.5,0-2.33a19.81,19.81,0,0,0-.16-2.18,1.13,1.13,0,0,0-.3-.73,1.37,1.37,0,0,0-.71-.13h-1v-.85h4.82v.85h-.72a3.45,3.45,0,0,0-.66,0c-.09,0-.14.13-.14.3v9.13a7,7,0,0,1-.59,3,5.7,5.7,0,0,1-1.55,2,6.27,6.27,0,0,1-2.15,1.14,8.58,8.58,0,0,1-2.44.36,9.24,9.24,0,0,1-3.25-.49A5.56,5.56,0,0,1,161.1,44a4.31,4.31,0,0,1-1.05-1.8,7.37,7.37,0,0,1-.3-2.08V33.27q0-1.29,0-2a5.09,5.09,0,0,0-.14-1c-.07-.23-.17-.37-.3-.41a1.59,1.59,0,0,0-.51-.07h-1.16v-.85h6.68Z"/><path class="cls-1" d="M176.75,44.44h1.16c.17,0,.28,0,.32-.1a.6.6,0,0,0,.07-.31V33.27q0-1.29,0-2a5,5,0,0,0-.14-1c-.07-.23-.17-.37-.3-.41a1.58,1.58,0,0,0-.5-.07h-1.16v-.85h12.64c-.07.62-.12,1.1-.17,1.45s-.09.6-.13.79a.92.92,0,0,1-.12.34.18.18,0,0,1-.15.06c-.17,0-.28,0-.32-.14a1.42,1.42,0,0,1-.09-.43c0-.22-.37-.46-1.07-.7a10.9,10.9,0,0,0-3.26-.36h-1.86a.3.3,0,0,0-.34.33V35.9h2.4a14.49,14.49,0,0,0,1.6-.07,2.75,2.75,0,0,0,.84-.19.59.59,0,0,0,.34-.32,1.67,1.67,0,0,0,.06-.48v-.9h.77v4.54h-.77v-.93a.76.76,0,0,0-.06-.3.52.52,0,0,0-.34-.23,3.81,3.81,0,0,0-.84-.14c-.38,0-.91-.05-1.6-.05h-2.4v1.88q0,2.06,0,3.19a11.4,11.4,0,0,0,.13,1.65c.07.35.17.57.3.63a1.14,1.14,0,0,0,.53.1h.9l1.37,0a14.13,14.13,0,0,0,1.71-.16,7.24,7.24,0,0,0,1.59-.41,1.93,1.93,0,0,0,1-.83l.14-.23a.27.27,0,0,1,.25-.1c.19,0,.28.1.28.31a1.52,1.52,0,0,1,0,.22c0,.09-.05.23-.1.41l-.21.7-.34,1.12H176.75Z"/><path class="cls-1" d="M206.33,40.16c0,1,0,1.76,0,2.32a5.94,5.94,0,0,0,.17,1.24c.08.27.2.44.35.49a1.85,1.85,0,0,0,.6.08h1.36v1H201v-1h1.37c.2,0,.33,0,.38-.12a.67.67,0,0,0,.08-.36V31.15q0-1.52,0-2.34a5.53,5.53,0,0,0-.17-1.23c-.08-.28-.2-.44-.35-.48a1.85,1.85,0,0,0-.59-.08h-1.36V26h7.86v1h-1.36c-.21,0-.33,0-.38.12a.68.68,0,0,0-.08.37Z"/><path class="cls-1" d="M219.8,41.47a2.32,2.32,0,0,0-.62-1.72,5.33,5.33,0,0,0-1.56-1.06,19.68,19.68,0,0,0-2-.8,10.69,10.69,0,0,1-2-.91A5,5,0,0,1,212,35.53a4.07,4.07,0,0,1-.62-2.36,3.82,3.82,0,0,1,.56-2.08,4.88,4.88,0,0,1,1.43-1.48,6.55,6.55,0,0,1,2-.89,8.32,8.32,0,0,1,2.18-.3,12.33,12.33,0,0,1,1.61.1,7,7,0,0,1,1.56.39c0,.34,0,.73.07,1.16s.05.75.05,1,0,.25-.12.3a.5.5,0,0,1-.24.06c-.14,0-.22,0-.26-.13a2.79,2.79,0,0,1-.1-.31,1.16,1.16,0,0,0-.43-.7,2.76,2.76,0,0,0-.79-.45,5.16,5.16,0,0,0-.9-.25,5.54,5.54,0,0,0-.83-.08,4.7,4.7,0,0,0-1.24.17,3.3,3.3,0,0,0-1.1.51,2.91,2.91,0,0,0-.79.87,2.29,2.29,0,0,0-.31,1.21,2.1,2.1,0,0,0,.62,1.6,5.24,5.24,0,0,0,1.56,1q.94.41,2,.78a9.22,9.22,0,0,1,2,1,5.14,5.14,0,0,1,1.56,1.53,4.55,4.55,0,0,1,.62,2.52,6.1,6.1,0,0,1-.21,1.16,4.73,4.73,0,0,1-.89,1.74,5.94,5.94,0,0,1-2,1.58,7.44,7.44,0,0,1-3.46.68A12.22,12.22,0,0,1,211.4,45c-.14-.74-.25-1.29-.32-1.65a4,4,0,0,1-.12-.77.9.9,0,0,1,.05-.28c0-.11.15-.16.33-.16a.3.3,0,0,1,.31.16,1.5,1.5,0,0,1,.13.36,1.94,1.94,0,0,0,.65.91,4.6,4.6,0,0,0,1,.63,5.32,5.32,0,0,0,1.2.38,6,6,0,0,0,1.11.12,5.48,5.48,0,0,0,1.47-.19,3.84,3.84,0,0,0,1.29-.6,3.28,3.28,0,0,0,.92-1A2.82,2.82,0,0,0,219.8,41.47Z"/><path class="cls-1" d="M229.45,38.71q0,2.06,0,3.19a11.06,11.06,0,0,0,.13,1.65c.07.35.17.57.3.63a1.13,1.13,0,0,0,.53.1h.9l1.37,0a14.27,14.27,0,0,0,1.72-.16,7.2,7.2,0,0,0,1.58-.41,1.94,1.94,0,0,0,1-.83l.14-.23a.26.26,0,0,1,.24-.1q.29,0,.29.31a1.42,1.42,0,0,1,0,.22c0,.09-.05.23-.11.41l-.21.7L237,45.29H224.91v-.85h1.16c.17,0,.28,0,.32-.1a.6.6,0,0,0,.06-.31V33.27c0-.86,0-1.52,0-2a4.8,4.8,0,0,0-.14-1c-.07-.23-.17-.37-.29-.41a1.56,1.56,0,0,0-.5-.07h-1.16v-.85H231v.85h-1.16c-.17,0-.29,0-.32.1a.47.47,0,0,0,0,.31Z"/><path class="cls-1" d="M239.54,44.44h1.16c.17,0,.28,0,.32-.1a.62.62,0,0,0,.06-.31V33.27c0-.86,0-1.52,0-2a4.68,4.68,0,0,0-.14-1c-.07-.23-.17-.37-.29-.41a1.57,1.57,0,0,0-.5-.07h-1.16v-.85h12.64c-.07.62-.12,1.1-.17,1.45s-.09.6-.13.79a1.16,1.16,0,0,1-.12.34.18.18,0,0,1-.15.06c-.17,0-.28,0-.32-.14a1.48,1.48,0,0,1-.09-.43c0-.22-.37-.46-1.07-.7a10.9,10.9,0,0,0-3.26-.36h-1.86a.3.3,0,0,0-.33.33V35.9h2.4a14.48,14.48,0,0,0,1.6-.07,2.75,2.75,0,0,0,.84-.19.59.59,0,0,0,.33-.32,1.6,1.6,0,0,0,.07-.48v-.9h.77v4.54h-.77v-.93a.73.73,0,0,0-.07-.3.51.51,0,0,0-.33-.23,3.81,3.81,0,0,0-.84-.14c-.38,0-.91-.05-1.6-.05h-2.4v1.88q0,2.06,0,3.19a10.31,10.31,0,0,0,.13,1.65c.07.35.17.57.29.63a1.16,1.16,0,0,0,.53.1h.9l1.37,0A14.31,14.31,0,0,0,249,44.1a7.24,7.24,0,0,0,1.59-.41,2,2,0,0,0,1-.83l.14-.23a.26.26,0,0,1,.25-.1c.18,0,.28.1.28.31a1.15,1.15,0,0,1,0,.22c0,.09-.05.23-.1.41l-.21.7-.33,1.12H239.54Z"/><path class="cls-1" d="M162.68,51.53a.52.52,0,0,1,.47.36.71.71,0,0,1,.09.35.54.54,0,0,1-.09.28l-.13.22a.3.3,0,0,0,0,.16,1.48,1.48,0,0,0,.2.57c.33.63.7,1.32,1.12,2.08s.84,1.5,1.28,2.21c.12.2.21.18.28,0,.17-.53.32-1,.45-1.4s.27-.78.39-1.12.24-.66.35-.95.23-.56.34-.83a13,13,0,0,1,.55-1.33,3,3,0,0,1,.37-.59.72.72,0,0,1,.51-.28.35.35,0,0,1,.27.13,1,1,0,0,1,.18.31c0,.12.08.24.11.36a1.6,1.6,0,0,1,0,.28.3.3,0,0,1-.32.34.8.8,0,0,0-.35.12.86.86,0,0,0-.2.29q-.32.68-.59,1.37c-.18.46-.35.9-.5,1.31s-.28.8-.39,1.16-.2.66-.27.91a5.37,5.37,0,0,0-.19.74,3.13,3.13,0,0,0,0,.43.72.72,0,0,0,.07.34,1.55,1.55,0,0,0,.16.26.32.32,0,0,1,0,.25.6.6,0,0,1-.12.25,1.07,1.07,0,0,1-.21.17.44.44,0,0,1-.26.08.55.55,0,0,1-.32-.11,1.24,1.24,0,0,1-.24-.24,3.75,3.75,0,0,1-.25-.45c-.11-.21-.33-.59-.65-1.11-.15-.25-.34-.58-.56-1l-.65-1.19q-.32-.58-.56-1.05c-.17-.31-.27-.51-.32-.58s-.09-.11-.12-.1-.07.06-.12.16c-.32.72-.61,1.37-.84,2s-.38,1-.45,1.25a2.65,2.65,0,0,0-.09.4c0,.09,0,.2,0,.31,0,.27,0,.47-.05.6a1.58,1.58,0,0,1-.2.66l-.25.41a.74.74,0,0,1-.25.24.6.6,0,0,1-.24.06.5.5,0,0,1-.39-.18.72.72,0,0,1-.16-.5,1.18,1.18,0,0,1,.07-.36,2.28,2.28,0,0,1,.14-.36c.21-.5.44-1,.67-1.63s.45-1.14.65-1.66l.52-1.34.27-.72a.29.29,0,0,0-.08-.38.49.49,0,0,1-.13-.17.32.32,0,0,1,0-.26.88.88,0,0,1,.34-.45.35.35,0,0,0,.11-.3.25.25,0,0,1,0-.23,3,3,0,0,1,.17-.26.77.77,0,0,1,.22-.15.52.52,0,0,1,.2-.06Z"/><path class="cls-1" d="M168.62,59.13a3.82,3.82,0,0,1,.18-1.1,9.11,9.11,0,0,1,.37-1c.07-.13.17-.3.28-.49l.35-.57c.12-.19.23-.36.34-.51l.23-.32.16-.27a.65.65,0,0,0,.06-.29.81.81,0,0,1,.08-.33.74.74,0,0,1,.18-.22.6.6,0,0,1,.47-.17.43.43,0,0,0,.23-.06,1,1,0,0,0,.18-.15.65.65,0,0,1,.55-.28.45.45,0,0,1,.39.14.53.53,0,0,1,.1.33V54c0,.05,0,.09.1.13a2.56,2.56,0,0,1,.64.71,2.28,2.28,0,0,1,.3,1.25,2,2,0,0,1-.08.49c-.05.2-.12.41-.2.64a5.13,5.13,0,0,1-.32.68,4.14,4.14,0,0,1-.42.62,5.16,5.16,0,0,1-1.63,1.43,3.39,3.39,0,0,1-1.53.45A1,1,0,0,1,169,60a1.25,1.25,0,0,1-.34-.86Zm1.09-.3a.68.68,0,0,0,.14.45.45.45,0,0,0,.35.17,1.44,1.44,0,0,0,.56-.13,2.06,2.06,0,0,0,.62-.45,5.07,5.07,0,0,0,.49-.58,4.91,4.91,0,0,0,.47-.76,6.44,6.44,0,0,0,.35-.81,2.37,2.37,0,0,0,.14-.74,3.89,3.89,0,0,0,0-.43,1.74,1.74,0,0,0-.1-.41.86.86,0,0,0-.22-.3.57.57,0,0,0-.38-.12.56.56,0,0,0-.37.16,3.8,3.8,0,0,0-.44.48,6,6,0,0,0-.5.68,9.45,9.45,0,0,0-.52.9,6.87,6.87,0,0,0-.41,1,3,3,0,0,0-.16.92Z"/><path class="cls-1" d="M179.7,53.5a.49.49,0,0,1,.44.2.58.58,0,0,1,.11.44,1.42,1.42,0,0,1-.14.38,1,1,0,0,1-.22.31c-.15.18-.29.21-.43.1l-.2-.11a.46.46,0,0,0-.23-.06.76.76,0,0,0-.48.28c-.18.18-.38.4-.59.65a11.41,11.41,0,0,0-1.4,2c-.41.73-.79,1.48-1.14,2.26-.12.24-.26.36-.44.36a.5.5,0,0,1-.43-.26.68.68,0,0,1,0-.66,6.73,6.73,0,0,0,.28-.89c.09-.38.19-.77.27-1.2s.17-.83.25-1.22.13-.71.17-.93.09-.48.13-.61a.74.74,0,0,1,.19-.32l.3-.31a.53.53,0,0,1,.34-.18.35.35,0,0,1,.32.21.72.72,0,0,1,.1.38.62.62,0,0,1-.06.27l-.13.23a2,2,0,0,0-.19.41c-.06.17-.12.36-.18.56s-.11.4-.15.58-.08.35-.1.49,0,.28.21,0l.43-.63c.16-.23.34-.47.53-.69l.57-.69a6.73,6.73,0,0,1,.56-.61,4.39,4.39,0,0,1,.7-.58,1.17,1.17,0,0,1,.62-.21Z"/><path class="cls-1" d="M181.49,59.34a2,2,0,0,0,.68-.13,7.62,7.62,0,0,0,.71-.3,6.26,6.26,0,0,0,.63-.35l.45-.29c.13-.1.22-.1.25,0a.29.29,0,0,1-.1.3,8.15,8.15,0,0,1-.89.73,7.51,7.51,0,0,1-1.8.91,1.33,1.33,0,0,1-.38.11l-.3,0a.93.93,0,0,1-.33-.07,1.27,1.27,0,0,1-.34-.19,1.13,1.13,0,0,1-.28-.3.79.79,0,0,1-.11-.42,2.8,2.8,0,0,1,.23-.92c0-.14.12-.35.21-.63l.28-.87c.1-.3.2-.58.29-.84s.16-.45.2-.55,0-.2-.13-.18l-.43,0-.41.07a.56.56,0,0,1-.4-.11.28.28,0,0,1-.08-.23.53.53,0,0,1,.12-.24.74.74,0,0,1,.19-.17,1.05,1.05,0,0,1,.31-.09l.46-.08.52-.08a.34.34,0,0,0,.32-.24l.16-.42c.09-.22.17-.46.25-.72s.18-.51.27-.74.16-.41.21-.51a1,1,0,0,1,.3-.4.7.7,0,0,1,.43-.19.31.31,0,0,1,.3.21.62.62,0,0,1,0,.65c-.25.5-.45,1-.61,1.35l-.29.73c-.05.12,0,.17.19.15l.59,0,.82,0,.91,0,.87,0c.2,0,.27.06.21.18a.53.53,0,0,1-.34.25c-.25.07-.65.14-1.21.24s-1.28.2-2.19.33a.73.73,0,0,0-.22.06.36.36,0,0,0-.12.19c-.09.21-.18.46-.28.73s-.19.54-.27.82-.16.54-.23.79-.12.46-.14.62q-.17.94.51.94Z"/><path class="cls-1" d="M190.87,53.66a.37.37,0,0,1,.33.15c.07.1.05.26,0,.47l-.28.65c-.11.27-.23.57-.35.91s-.24.69-.36,1.07-.22.74-.31,1.1a2.39,2.39,0,0,0-.1,1.06c.06.17.15.25.26.25a1.84,1.84,0,0,0,.93-.39,10.58,10.58,0,0,0,1.16-.9c.39-.35.75-.7,1.08-1a9.44,9.44,0,0,0,.71-.81c.08-.1.14-.15.2-.15a.13.13,0,0,1,.13.09c0,.13,0,.32-.17.59a5.84,5.84,0,0,1-.92,1.22,14.52,14.52,0,0,1-1.31,1.22,9.86,9.86,0,0,1-1.35.94,2.31,2.31,0,0,1-1,.38.5.5,0,0,1-.31-.11.79.79,0,0,1-.23-.39,2.67,2.67,0,0,1-.08-.74,6.62,6.62,0,0,1,.13-1.19c.1-.48.22-1,.35-1.43s.24-.84.33-1.09,0-.43-.34-.17a13.56,13.56,0,0,0-1.15,1c-.35.33-.66.65-.94,1s-.51.58-.71.83a6,6,0,0,0-.43.6,3.85,3.85,0,0,0-.27.55,2.76,2.76,0,0,0-.12.41.8.8,0,0,1-.22.5.62.62,0,0,1-.45.18c-.14,0-.22-.12-.26-.38a2.76,2.76,0,0,1,0-.83,6.29,6.29,0,0,1,.17-.74c.1-.39.22-.84.37-1.36s.32-1.07.48-1.66.34-1.12.5-1.61.29-.86.46-1.3.33-.85.5-1.24.32-.74.47-1.06a5.31,5.31,0,0,1,.4-.72,2.68,2.68,0,0,1,.41-.59.46.46,0,0,1,.28-.16c.14,0,.28.1.42.3a.8.8,0,0,1,.14.3.47.47,0,0,1-.12.36,11.11,11.11,0,0,0-1,1.83c-.32.69-.61,1.38-.86,2.07s-.46,1.34-.64,1.94-.31,1.09-.41,1.45c0,.14,0,.22,0,.25s.09,0,.18-.11.29-.31.53-.56.51-.5.81-.77l.87-.79.71-.61c.29-.21.53-.38.74-.51a1.38,1.38,0,0,1,.73-.19Z"/><path class="cls-1" d="M196.46,59.13a3.82,3.82,0,0,1,.18-1.1,10.48,10.48,0,0,1,.37-1c.08-.13.17-.3.28-.49l.35-.57c.12-.19.23-.36.34-.51l.23-.32.16-.27a.65.65,0,0,0,.06-.29.75.75,0,0,1,.09-.33.72.72,0,0,1,.17-.22.61.61,0,0,1,.47-.17.43.43,0,0,0,.24-.06,1.05,1.05,0,0,0,.18-.15.64.64,0,0,1,.55-.28.45.45,0,0,1,.38.14.55.55,0,0,1,.1.33V54c0,.05,0,.09.1.13a2.59,2.59,0,0,1,.64.71,2.28,2.28,0,0,1,.3,1.25,2.11,2.11,0,0,1-.08.49c-.05.2-.12.41-.2.64a4.62,4.62,0,0,1-.31.68,4.48,4.48,0,0,1-.43.62A5.16,5.16,0,0,1,199,59.92a3.37,3.37,0,0,1-1.53.45,1,1,0,0,1-.68-.37,1.23,1.23,0,0,1-.34-.86Zm1.09-.3a.7.7,0,0,0,.14.45.44.44,0,0,0,.35.17,1.44,1.44,0,0,0,.57-.13,2,2,0,0,0,.62-.45,5.07,5.07,0,0,0,.49-.58,4.89,4.89,0,0,0,.47-.76,6.14,6.14,0,0,0,.35-.81,2.26,2.26,0,0,0,.14-.74,3.41,3.41,0,0,0,0-.43,1.65,1.65,0,0,0-.11-.41.86.86,0,0,0-.21-.3.59.59,0,0,0-.39-.12.57.57,0,0,0-.37.16,4.12,4.12,0,0,0-.44.48,6.07,6.07,0,0,0-.5.68,9.45,9.45,0,0,0-.52.9,6.4,6.4,0,0,0-.4,1,2.91,2.91,0,0,0-.16.92Z"/><path class="cls-1" d="M208.2,49.11l.29,0a.52.52,0,0,1,.23.12.39.39,0,0,1,.1.25.41.41,0,0,1-.14.3,1,1,0,0,1-.23.25.51.51,0,0,1-.31.1,2,2,0,0,0-1,.32,4.25,4.25,0,0,0-1,.86,7.2,7.2,0,0,0-.84,1.24,8.24,8.24,0,0,0-.62,1.52c-.05.14,0,.2.13.17a17.51,17.51,0,0,0,1.74-.25l1.23-.29c.21-.06.32-.05.31,0s-.08.19-.22.27a4.94,4.94,0,0,1-.92.43c-.35.12-.7.24-1,.33s-.63.17-.89.23l-.53.12a.29.29,0,0,0-.17.1.64.64,0,0,0-.08.19c0,.1-.07.27-.14.51s-.14.5-.21.78-.16.57-.23.86-.13.53-.19.71q-.53,2.07-1,3.38t-.83,2.23c-.13.29-.28.58-.45.88a7.2,7.2,0,0,1-.56.86,5.14,5.14,0,0,1-.68.71,2.52,2.52,0,0,1-.8.46,1.39,1.39,0,0,1-.47.08.5.5,0,0,1-.36-.09c-.12-.15-.09-.34.09-.58a2.8,2.8,0,0,1,.4-.44.76.76,0,0,1,.3-.16,2.55,2.55,0,0,0,1.36-1.21,13.58,13.58,0,0,0,1.13-2.78l.29-1.07c.13-.49.27-1,.42-1.63l.45-1.83c.15-.62.28-1.18.38-1.67,0-.1,0-.16,0-.19a.19.19,0,0,0-.13,0,.9.9,0,0,1-.51-.16.33.33,0,0,1-.13-.22c0-.13.09-.25.27-.33a2,2,0,0,1,.69-.15.23.23,0,0,0,.12-.06.44.44,0,0,0,.07-.17,12.24,12.24,0,0,1,1.07-2.34,6.51,6.51,0,0,1,1.49-1.68,6.31,6.31,0,0,1,1.17-.75,2.3,2.3,0,0,1,.88-.25Z"/><path class="cls-1" d="M215.77,51.27a2,2,0,0,1,1,.27,2.68,2.68,0,0,1,.78.7,2.86,2.86,0,0,1,.37,1.6,4.88,4.88,0,0,1-.24,1.49,7.48,7.48,0,0,1-.59,1.38,8.73,8.73,0,0,1-.8,1.21,7.87,7.87,0,0,1-.86.93A5.74,5.74,0,0,1,213.67,60a4.23,4.23,0,0,1-1.38.31,2.3,2.3,0,0,1-.82-.17,2.42,2.42,0,0,1-.82-.54,1.63,1.63,0,0,1-.45-.79,4,4,0,0,1-.12-.9,4.53,4.53,0,0,1,.18-1.17,7.5,7.5,0,0,1,.53-1.35,8.73,8.73,0,0,1,.86-1.38,7.3,7.3,0,0,1,1.15-1.25,4.25,4.25,0,0,1,.73-.52,6.48,6.48,0,0,1,.66-.32,4,4,0,0,1,.5-.17l.23,0c.09,0,.18-.06.29-.19a.84.84,0,0,1,.26-.17.79.79,0,0,1,.28-.07Zm-.9,1.24A1.82,1.82,0,0,0,214,53a7.06,7.06,0,0,0-1.31,1.4,10.18,10.18,0,0,0-.76,1.25,7.8,7.8,0,0,0-.43,1,4.38,4.38,0,0,0-.2.81,4.14,4.14,0,0,0,0,.57,2,2,0,0,0,.25,1,.91.91,0,0,0,.86.44,2.68,2.68,0,0,0,1-.26,4.55,4.55,0,0,0,1.22-.79,7.53,7.53,0,0,0,.9-1,9,9,0,0,0,.81-1.28,8.54,8.54,0,0,0,.58-1.42,4.76,4.76,0,0,0,.23-1.41,1.18,1.18,0,0,0-.47-1,.55.55,0,0,0-.3-.14c-.06,0-.08,0-.06.13a.48.48,0,0,1,0,.18.4.4,0,0,1-.11.23.89.89,0,0,1-.25.2.71.71,0,0,1-.31.08.26.26,0,0,1-.2-.07.3.3,0,0,1-.09-.16.32.32,0,0,0-.16-.2.54.54,0,0,0-.25-.06Z"/><path class="cls-1" d="M223.26,53.5a.5.5,0,0,1,.45.2.6.6,0,0,1,.1.44,1.47,1.47,0,0,1-.14.38,1.12,1.12,0,0,1-.22.31c-.15.18-.3.21-.43.1l-.2-.11a.48.48,0,0,0-.24-.06.75.75,0,0,0-.48.28c-.18.18-.38.4-.59.65a11.32,11.32,0,0,0-1.4,2c-.41.73-.79,1.48-1.14,2.26-.11.24-.26.36-.43.36a.5.5,0,0,1-.43-.26.66.66,0,0,1,0-.66,7.43,7.43,0,0,0,.27-.89c.09-.38.18-.77.27-1.2s.17-.83.25-1.22.13-.71.17-.93a6.06,6.06,0,0,1,.13-.61.74.74,0,0,1,.19-.32,4.05,4.05,0,0,1,.3-.31.51.51,0,0,1,.34-.18.36.36,0,0,1,.32.21.7.7,0,0,1,.09.38.6.6,0,0,1-.05.27,2.54,2.54,0,0,1-.13.23,2.12,2.12,0,0,0-.19.41c-.06.17-.12.36-.18.56s-.11.4-.15.58-.08.35-.1.49,0,.28.21,0l.43-.63c.17-.23.34-.47.53-.69l.56-.69a6.74,6.74,0,0,1,.56-.61,4.39,4.39,0,0,1,.7-.58,1.16,1.16,0,0,1,.62-.21Z"/><path class="cls-1" d="M227.63,53.8a1.27,1.27,0,0,1,.62.15.45.45,0,0,0,.16,0s.06,0,.09-.11c.21-.51.42-1,.61-1.53s.38-1,.55-1.39l.44-1.1c.13-.31.22-.53.28-.66a.78.78,0,0,1,.17-.27.24.24,0,0,1,.17-.06.34.34,0,0,1,.17.05.73.73,0,0,1,.21.23.68.68,0,0,1,.13.33,1.2,1.2,0,0,1-.09.42l-.23.53c-.11.24-.23.52-.37.85l-.45,1.08q-.25.59-.49,1.25a19.21,19.21,0,0,0-.7,2.33,14.75,14.75,0,0,0-.36,2.17,2,2,0,0,0,.07.89c.08.2.2.29.35.29a1.44,1.44,0,0,0,.83-.38,8.46,8.46,0,0,0,1-.91q.49-.52.89-1l.56-.72c.18-.21.29-.24.36-.07s0,.31-.15.6a7.26,7.26,0,0,1-.71,1.07,10.83,10.83,0,0,1-1,1.14,6.82,6.82,0,0,1-1.15.91,2.14,2.14,0,0,1-1.1.37.67.67,0,0,1-.66-.48,2.49,2.49,0,0,1-.15-1.06c0-.36.05-.67.09-.9s.07-.48.12-.72c0-.09,0-.13,0-.12a.65.65,0,0,0-.12.12c-.17.24-.37.48-.58.72l-.63.7c-.21.22-.4.41-.58.58a5.45,5.45,0,0,1-.43.37,5.92,5.92,0,0,1-1.08.65,2,2,0,0,1-.7.23.68.68,0,0,1-.45-.2,1.13,1.13,0,0,1-.22-.84,3.26,3.26,0,0,1,.13-.83,9.21,9.21,0,0,1,.37-1,8,8,0,0,1,.59-1.11,6.83,6.83,0,0,1,.78-1,5.19,5.19,0,0,1,1.49-1.18,2.93,2.93,0,0,1,1.24-.35Zm-.38.81a1.66,1.66,0,0,0-1,.56,8.27,8.27,0,0,0-1.15,1.38,6.87,6.87,0,0,0-.8,1.44,2.86,2.86,0,0,0-.2.82c0,.26.1.4.3.4A1.4,1.4,0,0,0,225,59a5,5,0,0,0,.93-.79c.21-.21.43-.45.65-.71s.43-.53.62-.8.35-.53.49-.76a2.47,2.47,0,0,0,.27-.6.38.38,0,0,0,0-.44.64.64,0,0,0-.21-.16.85.85,0,0,0-.42-.09Z"/><path class="cls-1" d="M232.27,60.39a.63.63,0,0,1-.36-.14,1.47,1.47,0,0,1-.37-.52,1.33,1.33,0,0,1-.08-1.13c0-.1.07-.24.13-.43l.2-.62c.06-.22.14-.45.21-.67l.18-.54a1.27,1.27,0,0,0,.07-.26.42.42,0,0,0,0-.19.65.65,0,0,1,0-.24.92.92,0,0,1,.09-.29,5.41,5.41,0,0,1,.32-.54,5.27,5.27,0,0,1,.45-.59,4.08,4.08,0,0,1,.48-.48.72.72,0,0,1,.38-.2.27.27,0,0,1,.23.14.52.52,0,0,1,.13.29.72.72,0,0,1-.11.46c-.16.28-.33.58-.49.92s-.32.69-.47,1l-.42,1.05c-.13.34-.24.67-.33,1a1.08,1.08,0,0,0,0,.73.35.35,0,0,0,.33.2,1.91,1.91,0,0,0,.92-.33,8.94,8.94,0,0,0,1.14-.83,13.46,13.46,0,0,0,1.17-1.1,13,13,0,0,0,1-1.15c.18-.2.29-.22.34-.06s0,.33-.17.58a6.73,6.73,0,0,1-.79,1.08,13.54,13.54,0,0,1-1,1.06q-.55.5-1.07.89a4.56,4.56,0,0,1-.92.57,3.54,3.54,0,0,1-.61.25,1.39,1.39,0,0,1-.38.07Zm2.48-10.47a.62.62,0,0,1,.43.14.38.38,0,0,1,.11.41,3.94,3.94,0,0,0-.12.72,4.1,4.1,0,0,0,0,.67c0,.12,0,.2-.1.22a.46.46,0,0,1-.31-.07.93.93,0,0,1-.5-.64,2.53,2.53,0,0,1-.05-.34,3.16,3.16,0,0,1,0-.39.94.94,0,0,1,.19-.59.53.53,0,0,1,.37-.13Z"/><path class="cls-1" d="M238.11,53.25a.49.49,0,0,1,.41.28,1,1,0,0,1,.17.49.18.18,0,0,1-.17.19.49.49,0,0,0-.25.16,2.58,2.58,0,0,0-.24.35c-.06.13-.13.29-.22.5s-.16.43-.25.68-.15.48-.22.72-.13.45-.16.64,0,.16,0,.18.1,0,.16-.1a8.28,8.28,0,0,1,.61-.74c.25-.27.51-.55.78-.82s.52-.51.76-.74a6.88,6.88,0,0,1,.57-.48c.27-.21.47-.35.57-.42A1.78,1.78,0,0,1,241,54a.72.72,0,0,0,.36-.34l.18-.2a.25.25,0,0,1,.18-.08.49.49,0,0,1,.38.24.4.4,0,0,1,.13.33,1.33,1.33,0,0,1-.11.41,4.06,4.06,0,0,1-.28.44,3.39,3.39,0,0,0-.29.51,12.18,12.18,0,0,0-.5,1.26c-.16.46-.29.88-.39,1.27a2.4,2.4,0,0,0,0,1.46.63.63,0,0,0,.57.43,1.44,1.44,0,0,0,.8-.34,9.48,9.48,0,0,0,1-.83,12.78,12.78,0,0,0,1-1.06c.32-.38.6-.73.84-1s.22-.19.27-.06,0,.34-.19.6a14.77,14.77,0,0,1-1.21,1.71,7.86,7.86,0,0,1-1.09,1.11,3.79,3.79,0,0,1-1,.59,2.23,2.23,0,0,1-.82.17,1.07,1.07,0,0,1-1-.7,3.2,3.2,0,0,1,0-2.06c.09-.41.18-.8.29-1.15s.2-.63.27-.85a1.59,1.59,0,0,0,.11-.34c0-.06,0-.11,0-.13s-.19,0-.41.22a13.38,13.38,0,0,0-1.16,1.14c-.35.39-.66.75-.93,1.1s-.51.68-.71,1-.35.56-.46.77a2.31,2.31,0,0,1-.25.37.42.42,0,0,1-.31.2.51.51,0,0,1-.36-.22.54.54,0,0,1,0-.35,3.51,3.51,0,0,1,.09-.48c.28-1.26.55-2.33.83-3.22A12.36,12.36,0,0,1,237.3,54a2,2,0,0,1,.44-.64.6.6,0,0,1,.35-.13Z"/><path class="cls-1" d="M247.85,53.53a.36.36,0,0,1,.27.13l.22.25c0,.09.08.1.17,0a.29.29,0,0,1,.36,0c.14.09.21.18.22.27a.45.45,0,0,1-.06.28,14.23,14.23,0,0,0-.68,1.77,5.86,5.86,0,0,0-.24,1.64,4.31,4.31,0,0,0,.11,1c.08.28.23.42.45.42a1.25,1.25,0,0,0,.71-.29,6.32,6.32,0,0,0,.83-.72c.29-.29.57-.6.84-.94s.52-.65.71-.92a.31.31,0,0,1,.21-.13.13.13,0,0,1,.13.09.4.4,0,0,1,0,.25,2.5,2.5,0,0,1-.14.37,5.48,5.48,0,0,1-.71,1.09,9.46,9.46,0,0,1-1,1.06,6.93,6.93,0,0,1-1,.8,1.79,1.79,0,0,1-.9.32.94.94,0,0,1-.68-.39,1.63,1.63,0,0,1-.4-1c0-.2,0-.42,0-.65s0-.4,0-.5-.05-.12-.15,0-.17.22-.32.39l-.5.56-.54.57-.46.44a1.82,1.82,0,0,1-1.09.57.58.58,0,0,1-.19,0,.86.86,0,0,1-.27-.15.93.93,0,0,1-.23-.28.9.9,0,0,1-.1-.44,3,3,0,0,1,.13-.73,7.19,7.19,0,0,1,.58-1.33,12.45,12.45,0,0,1,1-1.58,8.44,8.44,0,0,1,1.31-1.45,3.25,3.25,0,0,1,1-.66,2,2,0,0,1,.54-.13Zm-.53,1a.85.85,0,0,0-.5.25,6.29,6.29,0,0,0-.66.71,7,7,0,0,0-1.08,1.65,10.92,10.92,0,0,0-.55,1.37.75.75,0,0,0,0,.45.23.23,0,0,0,.24.19.65.65,0,0,0,.32-.14,3.59,3.59,0,0,0,.47-.38,6.49,6.49,0,0,0,.61-.69l.8-1a2.19,2.19,0,0,0,.2-.31l.21-.39.19-.35a1.78,1.78,0,0,0,.1-.21,1.89,1.89,0,0,0,.1-.34.93.93,0,0,0,0-.36.86.86,0,0,0-.12-.29.3.3,0,0,0-.27-.12Z"/><path class="cls-1" d="M256.15,53.5a.5.5,0,0,1,.44.2.58.58,0,0,1,.1.44,1.34,1.34,0,0,1-.14.38,1.27,1.27,0,0,1-.22.31c-.15.18-.29.21-.43.1l-.2-.11a.47.47,0,0,0-.24-.06A.76.76,0,0,0,255,55c-.18.18-.38.4-.59.65a11.33,11.33,0,0,0-1.4,2c-.41.73-.79,1.48-1.14,2.26-.11.24-.26.36-.43.36A.5.5,0,0,1,251,60a.65.65,0,0,1,0-.66,7.08,7.08,0,0,0,.27-.89c.09-.38.18-.77.27-1.2s.17-.83.25-1.22.13-.71.17-.93a6.06,6.06,0,0,1,.13-.61.72.72,0,0,1,.19-.32c.07-.09.18-.19.3-.31a.52.52,0,0,1,.34-.18.35.35,0,0,1,.32.21.68.68,0,0,1,.09.38.6.6,0,0,1-.06.27l-.13.23a2.12,2.12,0,0,0-.19.41c-.06.17-.12.36-.18.56s-.11.4-.15.58-.08.35-.1.49,0,.28.21,0l.44-.63c.16-.23.34-.47.53-.69l.57-.69a6.46,6.46,0,0,1,.56-.61,4.39,4.39,0,0,1,.7-.58,1.16,1.16,0,0,1,.62-.21Z"/><path class="cls-1" d="M256.7,55.66a2.21,2.21,0,0,0,0-.43c0-.09,0-.16,0-.23a.93.93,0,0,1,0-.29.79.79,0,0,1,.09-.31l.13-.27a2.34,2.34,0,0,1,.17-.3,1.19,1.19,0,0,1,.21-.24.36.36,0,0,1,.23-.09.23.23,0,0,1,.21.17,1.63,1.63,0,0,1,.11.42,3.09,3.09,0,0,1,0,.51c0,.18,0,.33,0,.45s0,.36-.06.64-.05.55-.08.84-.06.57-.09.84,0,.48-.06.64a1.66,1.66,0,0,0,.07.76c.08.16.16.24.27.24s.48-.22.85-.66a14,14,0,0,0,1.3-2,3.15,3.15,0,0,0,.36-.77,1.05,1.05,0,0,0,0-.33,2.48,2.48,0,0,1,0-.29.78.78,0,0,1,.13-.33c.09-.14.16-.27.22-.39s.13-.27.23-.44a.65.65,0,0,1,.2-.28.39.39,0,0,1,.22-.06c.1,0,.2.08.3.23a.92.92,0,0,1,.15.48,2.36,2.36,0,0,1-.09.49,4.83,4.83,0,0,1-.26.72c-.07.17-.2.42-.37.75s-.37.67-.59,1-.45.74-.69,1.1a11.11,11.11,0,0,1-.68.94q-1.56,1.9-2.52,3.17c-.63.84-1,1.39-1.23,1.66s-.1.23,0,.25c.21.06.32.16.32.3a.45.45,0,0,1-.18.31,3.6,3.6,0,0,1-.41.3l-.44.26-.31.18a1.09,1.09,0,0,0-.36.21,1.91,1.91,0,0,0-.21.27,3.68,3.68,0,0,1-.38.51.59.59,0,0,1-.43.19.4.4,0,0,1-.32-.13.35.35,0,0,1,0-.36,2,2,0,0,1,.17-.46,5.84,5.84,0,0,1,.36-.53,2.49,2.49,0,0,1,.47-.51,1.26,1.26,0,0,1,.3-.17.52.52,0,0,0,.3-.26,3,3,0,0,1,.15-.26l.29-.45.39-.57c.14-.2.29-.4.45-.58l.42-.55.59-.76.58-.77.42-.54c.07-.07.06-.1,0-.07a1.5,1.5,0,0,1-.41.07c-.18,0-.3-.12-.38-.39a4.6,4.6,0,0,1-.09-1.29Z"/><path class="cls-2" d="M9.09,35.7l16.09-3.65A15.47,15.47,0,0,1,36.54,20.69L40.2,4.59l3.66,16.1A15.47,15.47,0,0,1,55.21,32.05L71.31,35.7l-16.1,3.66A15.48,15.48,0,0,1,43.85,50.71L40.2,66.81l-3.66-16.1A15.48,15.48,0,0,1,25.19,39.35Zm31.11,14a14,14,0,1,0-14-14A14,14,0,0,0,40.2,49.65Z"/><path class="cls-2" d="M24,19.46l8.2,3a15.47,15.47,0,0,1,16.06,0l8.21-3-3,8.21a15.47,15.47,0,0,1,0,16.06l3,8.2-8.21-3a15.47,15.47,0,0,1-16.06,0l-8.2,3,3-8.21a15.47,15.47,0,0,1,0-16.07Zm6.37,26.1a14,14,0,1,0,0-19.73A14,14,0,0,0,30.34,45.56Z"/><path class="cls-3" d="M67.49,35.64,55.68,33a15.44,15.44,0,0,1,.23,2.67Z"/><path class="cls-3" d="M40.08,8.4,37.41,20.21A15.61,15.61,0,0,1,40.08,20Z"/><path class="cls-3" d="M12.87,35.63,24.68,38.3a15.45,15.45,0,0,1-.23-2.67Z"/><path class="cls-3" d="M40.28,63l2.67-11.81a15.41,15.41,0,0,1-2.67.23Z"/><path class="cls-3" d="M55,50.35l-2.16-5.82a15.38,15.38,0,0,1-1.72,2.05Z"/><path class="cls-3" d="M54.48,20.88,48.92,23a12.08,12.08,0,0,1,1.91,1.38Z"/><path class="cls-3" d="M25.35,21.35l2.22,5.59a15.51,15.51,0,0,1,1.73-2.05Z"/><path class="cls-3" d="M25.6,50.48l5.93-2.16a15.56,15.56,0,0,1-2-1.73Z"/><path class="cls-1" d="M47,7.56l3.09.55L47.24,9.53l.44,3.13L45.53,10.4l-2.8,1.38L44.23,9,42,6.69l3.08.55,1.44-2.72Z"/><path class="cls-1" d="M38.27,21.83A14,14,0,1,0,54.13,33.64,14,14,0,0,0,38.27,21.83"/><circle class="cls-4" cx="40.3" cy="35.68" r="13.99" transform="matrix(0.98, -0.18, 0.18, 0.98, -5.68, 7.7)"/><path class="cls-5" d="M26.12,34s14.7-1.3,27.68,4.93"/><path class="cls-6" d="M43.72,22.14s2.37,12.26-5.21,27.36"/><path class="cls-6" d="M46.89,23.33s7.65,12.92-5.8,26.37"/><path class="cls-6" d="M41.78,21.75s-9.13,7.65-5.54,27.53"/><path class="cls-7" d="M51.17,26.83s5.34,11.67-5.54,21.89"/><path class="cls-6" d="M37.82,21.92S23,32.1,34,48.25"/></svg>